<svg xmlns="http://www.w3.org/2000/svg" width="34" height="33" fill="none" viewBox="0 0 34 33"><path fill="#2EC4B6" d="M6.09044 0.857124L4.41844 2.52675L6.90625 5.01337L8.57588 3.34375L6.08925 0.857124H6.09044ZM27.9107 0.857124L25.4229 3.34375L27.0938 5.01337L29.5804 2.52794L27.9096 0.857124H27.9107ZM17 1.59812C16.6081 1.60287 16.2115 1.62544 15.8125 1.67412C15.8006 1.67412 15.7888 1.67175 15.7769 1.67412C10.9604 2.22631 7.12712 6.11775 6.46094 10.9129C5.92894 14.7722 7.52019 18.2718 10.1719 20.5257C11.2565 21.4514 11.9902 22.7217 12.25 24.1238V31.2488H14.9575C15.3707 31.9578 16.1248 32.4363 17 32.4363C17.8752 32.4363 18.6292 31.9578 19.0425 31.2488H21.75V26.4988H21.8616V25.0881C21.8616 23.3472 22.7665 21.5921 24.2366 20.2276C26.2031 18.2587 27.6875 15.4622 27.6875 12.25C27.6875 6.38375 22.8591 1.5435 17 1.59812ZM17 3.97312C21.5897 3.909 25.3125 7.66625 25.3125 12.25C25.3125 14.7366 24.1606 16.9264 22.5658 18.52L22.6038 18.558C21.0189 20.0195 19.9941 21.9885 19.7063 24.125H14.5122C14.2509 22.0896 13.3781 20.1196 11.7287 18.7064C9.63037 16.9252 8.37994 14.2414 8.79794 11.2109C9.31688 7.47031 12.3521 4.46237 16.0714 4.05031C16.3784 4.0075 16.6877 3.98213 16.9976 3.97431L17 3.97312ZM0.375 12.25V14.625H3.9375V12.25H0.375ZM30.0625 12.25V14.625H33.625V12.25H30.0625ZM6.90625 21.8616L4.41963 24.3471L6.09044 26.0179L8.57469 23.5312L6.90625 21.8616ZM27.0938 21.8616L25.4241 23.5312L27.9096 26.0179L29.5804 24.3471L27.0938 21.8616ZM14.625 26.5H19.375V28.875H14.625V26.5Z"/></svg>