<svg xmlns="http://www.w3.org/2000/svg" width="51" height="49" fill="none" viewBox="0 0 51 49"><path fill="#2EC4B6" d="M48.125 40.25V42.875C48.125 45.7625 45.7625 48.125 42.875 48.125H6.125C4.73261 48.125 3.39726 47.5719 2.41269 46.5873C1.42812 45.6027 0.875 44.2674 0.875 42.875V6.125C0.875 4.73261 1.42812 3.39726 2.41269 2.41269C3.39726 1.42812 4.73261 0.875 6.125 0.875H42.875C45.7625 0.875 48.125 3.2375 48.125 6.125V8.75H24.5C23.1076 8.75 21.7723 9.30312 20.7877 10.2877C19.8031 11.2723 19.25 12.6076 19.25 14V35C19.25 36.3924 19.8031 37.7277 20.7877 38.7123C21.7723 39.6969 23.1076 40.25 24.5 40.25H48.125ZM24.5 35H50.75V14H24.5V35ZM35 28.4375C32.8213 28.4375 31.0625 26.6787 31.0625 24.5C31.0625 22.3213 32.8213 20.5625 35 20.5625C37.1787 20.5625 38.9375 22.3213 38.9375 24.5C38.9375 26.6787 37.1787 28.4375 35 28.4375Z"/></svg>