<svg xmlns="http://www.w3.org/2000/svg" width="53" height="53" fill="none" viewBox="0 0 53 53"><path fill="#2EC4B6" d="M26.4737 0.25C11.9837 0.25 0.25 12.01 0.25 26.5C0.25 40.99 11.9837 52.75 26.4737 52.75C40.99 52.75 52.75 40.99 52.75 26.5C52.75 12.01 40.99 0.25 26.4737 0.25ZM26.5 47.5C14.8975 47.5 5.5 38.1025 5.5 26.5C5.5 14.8975 14.8975 5.5 26.5 5.5C38.1025 5.5 47.5 14.8975 47.5 26.5C47.5 38.1025 38.1025 47.5 26.5 47.5ZM35.6875 23.875C37.8662 23.875 39.625 22.1162 39.625 19.9375C39.625 17.7588 37.8662 16 35.6875 16C33.5088 16 31.75 17.7588 31.75 19.9375C31.75 22.1162 33.5088 23.875 35.6875 23.875ZM17.3125 23.875C19.4912 23.875 21.25 22.1162 21.25 19.9375C21.25 17.7588 19.4912 16 17.3125 16C15.1337 16 13.375 17.7588 13.375 19.9375C13.375 22.1162 15.1337 23.875 17.3125 23.875ZM26.5 40.9375C32.6162 40.9375 37.8138 37.105 39.9137 31.75H13.0862C15.1862 37.105 20.3838 40.9375 26.5 40.9375Z"/></svg>