<svg xmlns="http://www.w3.org/2000/svg" width="53" height="53" fill="none" viewBox="0 0 53 53"><path fill="#2EC4B6" d="M16.375 42.25C13.4875 42.25 11.1513 44.6125 11.1513 47.5C11.1513 50.3875 13.4875 52.75 16.375 52.75C19.2625 52.75 21.625 50.3875 21.625 47.5C21.625 44.6125 19.2625 42.25 16.375 42.25ZM42.625 42.25C39.7375 42.25 37.4012 44.6125 37.4012 47.5C37.4012 50.3875 39.7375 52.75 42.625 52.75C45.5125 52.75 47.875 50.3875 47.875 47.5C47.875 44.6125 45.5125 42.25 42.625 42.25ZM47.875 37C47.875 35.5563 46.6937 34.375 45.25 34.375H16.375L19.2625 29.125H38.8188C40.7875 29.125 42.52 28.0488 43.4125 26.4213L51.9175 10.3038C52.2383 9.69679 52.308 8.98817 52.1116 8.33035C51.9152 7.67252 51.4685 7.11806 50.8675 6.78625C50.5631 6.61953 50.2285 6.51508 49.8833 6.479C49.5382 6.44293 49.1892 6.47594 48.8569 6.57612C48.5246 6.6763 48.2156 6.84164 47.9479 7.0625C47.6801 7.28336 47.459 7.55531 47.2975 7.8625L38.8188 23.875H20.3912L9.9175 1.74625C9.70653 1.29818 9.37228 0.919484 8.95388 0.654498C8.53548 0.389512 8.05025 0.249205 7.555 0.250003H3.25C1.80625 0.250003 0.625 1.43125 0.625 2.875C0.625 4.31875 1.80625 5.5 3.25 5.5H5.875L15.325 25.4238L11.7812 31.8288C9.865 35.3463 12.385 39.625 16.375 39.625H45.25C46.6937 39.625 47.875 38.4438 47.875 37ZM27.6362 2.11375C27.8791 1.87041 28.1676 1.67734 28.4851 1.54562C28.8027 1.41389 29.1431 1.34609 29.4869 1.34609C29.8307 1.34609 30.1711 1.41389 30.4886 1.54562C30.8062 1.67734 31.0947 1.87041 31.3375 2.11375L38.1362 8.9125C39.16 9.93625 39.16 11.59 38.1362 12.6138L31.3375 19.4125C31.0945 19.6555 30.806 19.8483 30.4884 19.9798C30.1709 20.1114 29.8306 20.1791 29.4869 20.1791C29.1432 20.1791 28.8029 20.1114 28.4853 19.9798C28.1678 19.8483 27.8793 19.6555 27.6362 19.4125C27.3932 19.1695 27.2004 18.881 27.0689 18.5634C26.9374 18.2459 26.8697 17.9056 26.8697 17.5619C26.8697 17.2182 26.9374 16.8779 27.0689 16.5603C27.2004 16.2428 27.3932 15.9543 27.6362 15.7113L29.9463 13.375H21.625C20.1812 13.375 19 12.1938 19 10.75C19 9.30625 20.1812 8.125 21.625 8.125H29.9463L27.6362 5.815C27.3929 5.57215 27.1998 5.2837 27.0681 4.96614C26.9364 4.64859 26.8686 4.30817 26.8686 3.96438C26.8686 3.62059 26.9364 3.28017 27.0681 2.96262C27.1998 2.64506 27.3929 2.3566 27.6362 2.11375Z"/></svg>