<svg xmlns="http://www.w3.org/2000/svg" width="49" height="49" fill="none" viewBox="0 0 49 49"><path fill="#2EC4B6" d="M0.875 24.5V42.875C0.875 45.7625 3.2375 48.125 6.125 48.125H11.375C14.2625 48.125 16.625 45.7625 16.625 42.875V32.375C16.625 29.4875 14.2625 27.125 11.375 27.125H6.125V24.5C6.125 14.3413 14.3413 6.125 24.5 6.125C34.6587 6.125 42.875 14.3413 42.875 24.5V27.125H37.625C34.7375 27.125 32.375 29.4875 32.375 32.375V42.875C32.375 45.7625 34.7375 48.125 37.625 48.125H42.875C45.7625 48.125 48.125 45.7625 48.125 42.875V24.5C48.125 18.2343 45.6359 12.2251 41.2054 7.7946C36.7748 3.36406 30.7657 0.875 24.5 0.875C18.2343 0.875 12.2251 3.36406 7.7946 7.7946C3.36405 12.2251 0.875 18.2343 0.875 24.5Z"/></svg>