<svg width="78" height="50" viewBox="0 0 78 50" fill="none" xmlns="http://www.w3.org/2000/svg">
<path d="M53 21.5C58.81 21.5 63.465 16.81 63.465 11C63.465 5.19 58.81 0.5 53 0.5C47.19 0.5 42.5 5.19 42.5 11C42.5 16.81 47.19 21.5 53 21.5ZM25 21.5C30.81 21.5 35.465 16.81 35.465 11C35.465 5.19 30.81 0.5 25 0.5C19.19 0.5 14.5 5.19 14.5 11C14.5 16.81 19.19 21.5 25 21.5ZM25 28.5C16.845 28.5 0.5 32.595 0.5 40.75V46C0.5 47.925 2.075 49.5 4 49.5H46C47.925 49.5 49.5 47.925 49.5 46V40.75C49.5 32.595 33.155 28.5 25 28.5ZM53 28.5C51.985 28.5 50.83 28.57 49.605 28.675C49.675 28.71 49.71 28.78 49.745 28.815C53.735 31.72 56.5 35.605 56.5 40.75V46C56.5 47.225 56.255 48.415 55.87 49.5H74C75.925 49.5 77.5 47.925 77.5 46V40.75C77.5 32.595 61.155 28.5 53 28.5Z" fill="#2EC4B6"/>
</svg>
