<svg xmlns="http://www.w3.org/2000/svg" width="11" height="40" fill="none" viewBox="0 0 11 40"><path fill="#2EC4B6" d="M5.39 10.26C7.99242 10.26 10.1217 8.09325 10.1217 5.445C10.1217 2.79675 7.99242 0.630005 5.39 0.630005C2.78758 0.630005 0.658333 2.79675 0.658333 5.445C0.658333 8.09325 2.78758 10.26 5.39 10.26ZM5.39 15.075C2.78758 15.075 0.658333 17.2418 0.658333 19.89C0.658333 22.5383 2.78758 24.705 5.39 24.705C7.99242 24.705 10.1217 22.5383 10.1217 19.89C10.1217 17.2418 7.99242 15.075 5.39 15.075ZM5.39 29.52C2.78758 29.52 0.658333 31.6868 0.658333 34.335C0.658333 36.9833 2.78758 39.15 5.39 39.15C7.99242 39.15 10.1217 36.9833 10.1217 34.335C10.1217 31.6868 7.99242 29.52 5.39 29.52Z"/></svg>