<svg xmlns="http://www.w3.org/2000/svg" width="65" height="56" fill="none" viewBox="0 0 65 56"><path fill="#2EC4B6" d="M23.9112 32.0444C30.2932 32.0444 35.4668 26.8708 35.4668 20.4889C35.4668 14.1069 30.2932 8.93332 23.9112 8.93332C17.5293 8.93332 12.3557 14.1069 12.3557 20.4889C12.3557 26.8708 17.5293 32.0444 23.9112 32.0444Z"/><path fill="#2EC4B6" d="M23.9111 37.8222C16.1978 37.8222 0.799988 41.6933 0.799988 49.3778V55.1556H47.0222V49.3778C47.0222 41.6933 31.6244 37.8222 23.9111 37.8222ZM46.3289 9.97333L41.4755 14.8556C43.9022 18.2644 43.9022 22.6844 41.4755 26.0933L46.3289 30.9756C52.1644 25.14 52.1644 16.3289 46.3289 9.97333ZM55.8911 0.266663L51.1822 4.97555C59.1844 13.7 59.1844 26.8156 51.1822 36.0022L55.8911 40.7111C67.1578 29.4733 67.1867 11.9667 55.8911 0.266663Z"/></svg>