<svg xmlns="http://www.w3.org/2000/svg" width="59" height="59" fill="none" viewBox="0 0 59 59"><path fill="#2EC4B6" d="M29.3933 0.533325C13.4467 0.533325 0.533325 13.4755 0.533325 29.4222C0.533325 45.3689 13.4467 58.3111 29.3933 58.3111C45.3689 58.3111 58.3111 45.3689 58.3111 29.4222C58.3111 13.4755 45.3689 0.533325 29.3933 0.533325ZM29.4222 52.5333C16.6533 52.5333 6.3111 42.1911 6.3111 29.4222C6.3111 16.6533 16.6533 6.3111 29.4222 6.3111C42.1911 6.3111 52.5333 16.6533 52.5333 29.4222C52.5333 42.1911 42.1911 52.5333 29.4222 52.5333ZM39.5333 26.5333C41.9311 26.5333 43.8667 24.5978 43.8667 22.2C43.8667 19.8022 41.9311 17.8667 39.5333 17.8667C37.1356 17.8667 35.2 19.8022 35.2 22.2C35.2 24.5978 37.1356 26.5333 39.5333 26.5333ZM19.3111 26.5333C21.7089 26.5333 23.6444 24.5978 23.6444 22.2C23.6444 19.8022 21.7089 17.8667 19.3111 17.8667C16.9133 17.8667 14.9778 19.8022 14.9778 22.2C14.9778 24.5978 16.9133 26.5333 19.3111 26.5333ZM29.4222 45.3111C36.1533 45.3111 41.8733 41.0933 44.1844 35.2H14.66C16.9711 41.0933 22.6911 45.3111 29.4222 45.3111Z"/></svg>