<svg xmlns="http://www.w3.org/2000/svg" width="58" height="59" fill="none" viewBox="0 0 58 59"><path fill="#2EC4B6" d="M18.1333 46.7556C14.9556 46.7556 12.3844 49.3556 12.3844 52.5333C12.3844 55.7111 14.9556 58.3111 18.1333 58.3111C21.3111 58.3111 23.9111 55.7111 23.9111 52.5333C23.9111 49.3556 21.3111 46.7556 18.1333 46.7556ZM47.0222 46.7556C43.8445 46.7556 41.2733 49.3556 41.2733 52.5333C41.2733 55.7111 43.8445 58.3111 47.0222 58.3111C50.2 58.3111 52.8 55.7111 52.8 52.5333C52.8 49.3556 50.2 46.7556 47.0222 46.7556ZM52.8 40.9778C52.8 39.3889 51.5 38.0889 49.9111 38.0889H18.1333L21.3111 32.3111H42.8333C45 32.3111 46.9067 31.1267 47.8889 29.3356L57.2489 11.5978C57.6019 10.9298 57.6786 10.1499 57.4625 9.42598C57.2464 8.70203 56.7548 8.09183 56.0933 7.72666C55.7583 7.54318 55.3901 7.42823 55.0102 7.38852C54.6304 7.34882 54.2463 7.38515 53.8806 7.4954C53.5149 7.60565 53.1748 7.78762 52.8802 8.03068C52.5855 8.27374 52.3422 8.57303 52.1645 8.91111L42.8333 26.5333H22.5533L11.0267 2.18C10.7945 1.68688 10.4266 1.27011 9.96618 0.978487C9.50572 0.686862 8.97171 0.53245 8.42667 0.533329H3.68889C2.1 0.533329 0.800003 1.83333 0.800003 3.42222C0.800003 5.01111 2.1 6.31111 3.68889 6.31111H6.57778L16.9778 28.2378L13.0778 35.2867C10.9689 39.1578 13.7422 43.8667 18.1333 43.8667H49.9111C51.5 43.8667 52.8 42.5667 52.8 40.9778ZM30.5267 2.58444C30.7939 2.31663 31.1114 2.10416 31.4609 1.95919C31.8103 1.81422 32.185 1.7396 32.5633 1.7396C32.9417 1.7396 33.3163 1.81422 33.6658 1.95919C34.0153 2.10416 34.3327 2.31663 34.6 2.58444L42.0822 10.0667C43.2089 11.1933 43.2089 13.0133 42.0822 14.14L34.6 21.6222C34.3325 21.8897 34.015 22.1018 33.6656 22.2466C33.3161 22.3913 32.9416 22.4658 32.5633 22.4658C32.1851 22.4658 31.8106 22.3913 31.4611 22.2466C31.1117 22.1018 30.7941 21.8897 30.5267 21.6222C30.2592 21.3548 30.0471 21.0372 29.9023 20.6878C29.7576 20.3383 29.6831 19.9638 29.6831 19.5856C29.6831 19.2073 29.7576 18.8328 29.9023 18.4833C30.0471 18.1339 30.2592 17.8163 30.5267 17.5489L33.0689 14.9778H23.9111C22.3222 14.9778 21.0222 13.6778 21.0222 12.0889C21.0222 10.5 22.3222 9.2 23.9111 9.2H33.0689L30.5267 6.65777C30.2589 6.39051 30.0464 6.07306 29.9014 5.72358C29.7565 5.3741 29.6818 4.99946 29.6818 4.62111C29.6818 4.24275 29.7565 3.86812 29.9014 3.51864C30.0464 3.16916 30.2589 2.8517 30.5267 2.58444Z"/></svg>