<svg xmlns="http://www.w3.org/2000/svg" width="52" height="52" fill="none" viewBox="0 0 52 52"><path fill="#2EC4B6" d="M0 26V46.2222C0 49.4 2.6 52 5.77778 52H11.5556C14.7333 52 17.3333 49.4 17.3333 46.2222V34.6667C17.3333 31.4889 14.7333 28.8889 11.5556 28.8889H5.77778V26C5.77778 14.82 14.82 5.77778 26 5.77778C37.18 5.77778 46.2222 14.82 46.2222 26V28.8889H40.4444C37.2667 28.8889 34.6667 31.4889 34.6667 34.6667V46.2222C34.6667 49.4 37.2667 52 40.4444 52H46.2222C49.4 52 52 49.4 52 46.2222V26C52 19.1044 49.2607 12.4912 44.3848 7.61522C39.5088 2.73928 32.8956 0 26 0C19.1044 0 12.4912 2.73928 7.61522 7.61522C2.73928 12.4912 1.02753e-07 19.1044 0 26Z"/></svg>