<svg xmlns="http://www.w3.org/2000/svg" width="56" height="52" fill="none" viewBox="0 0 56 52"><path fill="#2EC4B6" d="M52.2667 43.3333V46.2222C52.2667 49.4 49.6667 52 46.4889 52H6.04444C4.51208 52 3.04248 51.3913 1.95893 50.3077C0.875391 49.2242 0.266663 47.7546 0.266663 46.2222V5.77778C0.266663 4.24542 0.875391 2.77582 1.95893 1.69227C3.04248 0.608728 4.51208 0 6.04444 0H46.4889C49.6667 0 52.2667 2.6 52.2667 5.77778V8.66667H26.2667C24.7343 8.66667 23.2647 9.27539 22.1812 10.3589C21.0976 11.4425 20.4889 12.9121 20.4889 14.4444V37.5556C20.4889 39.0879 21.0976 40.5575 22.1812 41.6411C23.2647 42.7246 24.7343 43.3333 26.2667 43.3333H52.2667ZM26.2667 37.5556H55.1556V14.4444H26.2667V37.5556ZM37.8222 30.3333C35.4244 30.3333 33.4889 28.3978 33.4889 26C33.4889 23.6022 35.4244 21.6667 37.8222 21.6667C40.22 21.6667 42.1556 23.6022 42.1556 26C42.1556 28.3978 40.22 30.3333 37.8222 30.3333Z"/></svg>