<svg xmlns="http://www.w3.org/2000/svg" width="64" height="64" fill="none" viewBox="0 0 64 64"><path fill="#2EC4B6" d="M46.84 30.285L52.335 24.79L39.21 11.665L33.715 17.16L19.225 2.70503C16.495 -0.0249741 12.05 -0.0249741 9.32 2.70503L2.67 9.35503C-0.0600003 12.085 -0.0600003 16.53 2.67 19.26L17.125 33.715L0.5 50.375V63.5H13.625L30.285 46.84L44.74 61.295C48.065 64.62 52.545 63.395 54.645 61.295L61.295 54.645C64.025 51.915 64.025 47.47 61.295 44.74L46.84 30.285ZM22.13 28.745L7.64 14.29L14.255 7.64002L18.7 12.085L14.57 16.25L19.505 21.185L23.67 17.02L28.745 22.095L22.13 28.745ZM49.71 56.36L35.255 41.905L41.905 35.255L46.98 40.33L42.815 44.495L47.75 49.43L51.915 45.265L56.36 49.71L49.71 56.36ZM62.485 14.64C62.8095 14.3162 63.0669 13.9316 63.2425 13.5082C63.4181 13.0848 63.5086 12.6309 63.5086 12.1725C63.5086 11.7141 63.4181 11.2602 63.2425 10.8368C63.0669 10.4134 62.8095 10.0288 62.485 9.70502L54.295 1.51503C52.65 -0.129975 50.375 0.500025 49.36 1.51503L42.955 7.92002L56.08 21.045L62.485 14.64Z"/></svg>